<?xml version="1.0" encoding="UTF-8"?>
<svg xmlns="http://www.w3.org/2000/svg" xmlns:xlink="http://www.w3.org/1999/xlink" width="55px" height="px" viewBox="0 0 55 55" version="1.1">
<g id="surface1">
<path style=" stroke:none;fill-rule:nonzero;fill:rgb(0%,0%,0%);fill-opacity:1;" d="M 44.894531 13.132812 C 44.894531 14.890625 43.46875 16.316406 41.710938 16.316406 C 39.953125 16.316406 38.527344 14.890625 38.527344 13.132812 C 38.527344 11.375 39.953125 9.949219 41.710938 9.949219 C 43.46875 9.949219 44.890625 11.375 44.894531 13.132812 Z M 55 27.5 L 55 27.539062 L 54.820312 39.078125 C 54.722656 47.730469 47.730469 54.71875 39.078125 54.816406 L 27.5 55 L 27.460938 55 L 15.921875 54.820312 C 7.269531 54.722656 0.277344 47.730469 0.179688 39.078125 L 0 27.5 L 0 27.460938 L 0.179688 15.921875 C 0.28125 7.269531 7.269531 0.28125 15.921875 0.179688 L 27.5 0 L 27.539062 0 L 39.078125 0.179688 C 47.730469 0.277344 54.71875 7.269531 54.816406 15.921875 Z M 49.878906 27.5 L 49.699219 16.003906 C 49.632812 10.121094 44.878906 5.367188 38.996094 5.300781 L 27.5 5.121094 L 16.003906 5.300781 C 10.121094 5.367188 5.367188 10.121094 5.300781 16.003906 L 5.121094 27.5 L 5.300781 38.996094 C 5.367188 44.878906 10.121094 49.632812 16.003906 49.699219 L 27.5 49.878906 L 38.996094 49.699219 C 44.878906 49.632812 49.632812 44.878906 49.699219 38.996094 Z M 41.621094 27.5 C 41.621094 35.300781 35.300781 41.621094 27.5 41.621094 C 19.699219 41.621094 13.378906 35.300781 13.378906 27.5 C 13.378906 19.699219 19.699219 13.378906 27.5 13.378906 C 35.296875 13.386719 41.613281 19.703125 41.621094 27.5 Z M 36.5 27.5 C 36.5 22.527344 32.472656 18.5 27.5 18.5 C 22.527344 18.5 18.5 22.527344 18.5 27.5 C 18.5 32.472656 22.527344 36.5 27.5 36.5 C 32.46875 36.496094 36.496094 32.46875 36.5 27.5 Z M 36.5 27.5 "/>
</g>
</svg>
