<?xml version="1.0" standalone="no"?>
<!DOCTYPE svg PUBLIC "-//W3C//DTD SVG 20010904//EN"
 "http://www.w3.org/TR/2001/REC-SVG-20010904/DTD/svg10.dtd">
<svg version="1.0" xmlns="http://www.w3.org/2000/svg"
 width="400.000000pt" height="400.000000pt" viewBox="0 0 400.000000 400.000000"
 preserveAspectRatio="xMidYMid meet">

<g transform="translate(0.000000,400.000000) scale(0.100000,-0.100000)"
fill="#000000" stroke="none">
<path d="M0 2000 l0 -2000 2000 0 2000 0 0 2000 0 2000 -2000 0 -2000 0 0
-2000z m1262 825 c78 -25 145 -78 182 -145 l31 -55 30 28 c207 195 536 257
686 129 43 -37 78 -100 79 -139 0 -29 11 -29 36 -2 10 11 50 45 89 74 225 169
537 180 665 22 72 -89 79 -244 25 -504 -137 -648 -140 -668 -105 -703 15 -15
33 -20 78 -20 61 0 148 32 137 50 -3 5 0 7 8 4 8 -3 41 20 78 55 39 36 68 56
73 50 6 -6 0 -60 -18 -146 -49 -244 -41 -231 -181 -299 -256 -125 -506 -87
-598 90 -17 33 -21 64 -25 161 -4 130 -8 103 103 625 58 270 64 337 35 368
-17 18 -32 22 -76 22 -30 0 -70 -6 -89 -14 -55 -23 -126 -76 -119 -88 4 -6 2
-8 -4 -4 -14 8 -73 -64 -106 -130 -22 -44 -48 -140 -76 -284 -5 -25 -43 -205
-84 -400 -63 -294 -79 -358 -97 -373 -18 -15 -44 -17 -188 -17 -118 0 -172 4
-184 12 -15 12 -7 54 84 483 55 259 108 511 119 562 27 129 28 207 4 234 -17
19 -27 21 -84 17 -80 -6 -130 -30 -208 -103 -94 -86 -130 -171 -183 -425 -127
-617 -159 -755 -176 -768 -23 -17 -376 -13 -393 4 -12 12 -7 34 101 539 16 77
36 169 44 205 50 223 85 409 85 454 0 83 -37 126 -109 126 -62 0 -156 -49
-232 -120 -32 -31 -59 -51 -59 -46 0 32 74 355 86 373 7 12 23 24 34 28 11 4
17 11 14 17 -4 7 -2 8 4 4 6 -4 22 0 34 8 31 20 103 46 158 56 72 14 228 6
292 -15z"/>
</g>
</svg>
